<svg xmlns="http://www.w3.org/2000/svg" width="800" height="500"><rect width="100%" height="100%" fill="white"/><text x="80" y="30" font-size="20">Lookup reliability</text><line x1="80" y1="430" x2="770" y2="430" stroke="black"/><line x1="80" y1="60" x2="80" y2="430" stroke="black"/><text x="400" y="480" text-anchor="middle">Packet loss probability</text><text x="20" y="250" transform="rotate(-90 20,250)" text-anchor="middle">Success rate</text><line x1="80.0" y1="430" x2="80.0" y2="435" stroke="#dddddd"/><text x="80.0" y="450" text-anchor="middle" font-size="12">0</text><line x1="75" y1="430.0" x2="80" y2="430.0" stroke="#dddddd"/><text x="70" y="430.0" text-anchor="end" dominant-baseline="middle" font-size="12">0</text><line x1="218.0" y1="430" x2="218.0" y2="435" stroke="#dddddd"/><text x="218.0" y="450" text-anchor="middle" font-size="12">0.20</text><line x1="75" y1="356.0" x2="80" y2="356.0" stroke="#dddddd"/><text x="70" y="356.0" text-anchor="end" dominant-baseline="middle" font-size="12">0.22</text><line x1="356.0" y1="430" x2="356.0" y2="435" stroke="#dddddd"/><text x="356.0" y="450" text-anchor="middle" font-size="12">0.40</text><line x1="75" y1="282.0" x2="80" y2="282.0" stroke="#dddddd"/><text x="70" y="282.0" text-anchor="end" dominant-baseline="middle" font-size="12">0.44</text><line x1="494.0" y1="430" x2="494.0" y2="435" stroke="#dddddd"/><text x="494.0" y="450" text-anchor="middle" font-size="12">0.60</text><line x1="75" y1="208.0" x2="80" y2="208.0" stroke="#dddddd"/><text x="70" y="208.0" text-anchor="end" dominant-baseline="middle" font-size="12">0.66</text><line x1="632.0" y1="430" x2="632.0" y2="435" stroke="#dddddd"/><text x="632.0" y="450" text-anchor="middle" font-size="12">0.80</text><line x1="75" y1="134.0" x2="80" y2="134.0" stroke="#dddddd"/><text x="70" y="134.0" text-anchor="end" dominant-baseline="middle" font-size="12">0.88</text><line x1="770.0" y1="430" x2="770.0" y2="435" stroke="#dddddd"/><text x="770.0" y="450" text-anchor="middle" font-size="12">1</text><line x1="75" y1="60.0" x2="80" y2="60.0" stroke="#dddddd"/><text x="70" y="60.0" text-anchor="end" dominant-baseline="middle" font-size="12">1.10</text><polyline fill="none" stroke="blue" stroke-width="3" points="149.0,194.5 218.0,272.9 321.5,306.6 425.0,385.3 "/><circle cx="149.0" cy="194.5" r="4" fill="blue"/><circle cx="218.0" cy="272.9" r="4" fill="blue"/><circle cx="321.5" cy="306.6" r="4" fill="blue"/><circle cx="425.0" cy="385.3" r="4" fill="blue"/><line x1="620" y1="42" x2="645" y2="42" stroke="blue" stroke-width="3"/><text x="652" y="42" dominant-baseline="middle" font-size="12">Measured</text></svg>